<?xml version="1.0" standalone="no"?>
<!DOCTYPE svg PUBLIC "-//W3C//DTD SVG 20010904//EN"
 "http://www.w3.org/TR/2001/REC-SVG-20010904/DTD/svg10.dtd">
<svg version="1.0" xmlns="http://www.w3.org/2000/svg"
 width="563.000000pt" height="600.000000pt" viewBox="0 0 563.000000 600.000000"
 preserveAspectRatio="xMidYMid meet">

<g transform="translate(0.000000,600.000000) scale(0.100000,-0.100000)"
fill="#000000" stroke="none">
<path d="M2530 5454 c-213 -24 -390 -56 -518 -95 -972 -294 -1657 -1081 -1814
-2084 -29 -184 -31 -539 -5 -715 95 -638 392 -1184 863 -1590 365 -315 779
-508 1265 -591 159 -27 485 -37 655 -20 914 92 1703 657 2080 1492 154 340
224 669 224 1056 0 483 -120 911 -373 1333 -129 214 -384 503 -582 660 -197
156 -489 320 -719 405 -130 48 -371 109 -516 130 -108 16 -477 29 -560 19z
m870 -1374 l0 -250 -170 0 c-181 0 -217 -7 -255 -50 -18 -20 -20 -39 -23 -176
l-3 -154 230 0 c127 0 231 -2 231 -3 0 -2 -11 -123 -25 -268 -14 -145 -25
-274 -25 -286 l0 -23 -217 -2 -218 -3 -3 -727 -2 -728 -290 0 -290 0 -2 728
-3 727 -147 3 -148 3 0 289 0 290 144 0 143 0 6 193 c4 130 11 211 21 252 44
162 141 294 263 358 127 66 182 74 521 76 l262 1 0 -250z"/>
</g>
</svg>
