<?xml version="1.0" standalone="no"?>
<!DOCTYPE svg PUBLIC "-//W3C//DTD SVG 20010904//EN"
 "http://www.w3.org/TR/2001/REC-SVG-20010904/DTD/svg10.dtd">
<svg version="1.0" xmlns="http://www.w3.org/2000/svg"
 width="590.000000pt" height="606.000000pt" viewBox="0 0 590.000000 606.000000"
 preserveAspectRatio="xMidYMid meet">

<g transform="translate(0.000000,606.000000) scale(0.100000,-0.100000)"
fill="#000000" stroke="none">
<path d="M2655 5549 c-857 -88 -1619 -601 -2011 -1353 -213 -409 -304 -806
-291 -1270 8 -284 45 -494 136 -758 128 -371 310 -664 590 -952 392 -402 883
-653 1453 -743 161 -26 585 -25 746 0 392 63 759 206 1062 415 626 431 1018
1083 1106 1840 28 238 11 578 -42 816 -85 386 -264 759 -511 1066 -88 110
-275 296 -383 383 -354 282 -770 467 -1218 538 -147 23 -493 33 -637 18z m685
-1114 c289 -64 528 -193 730 -395 413 -411 531 -1027 300 -1563 -184 -426
-565 -731 -1041 -834 -120 -26 -439 -25 -559 1 -113 24 -249 70 -332 112 -37
19 -73 34 -79 34 -6 0 -181 -54 -388 -120 -358 -114 -401 -126 -401 -115 0 2
57 172 127 375 l126 371 -56 117 c-62 128 -95 224 -123 353 -26 116 -26 407
-1 532 59 292 185 526 396 738 224 223 494 360 806 408 93 15 407 6 495 -14z"/>
<path d="M2928 4230 c-362 -41 -677 -231 -874 -526 -261 -393 -273 -879 -29
-1281 l52 -87 -73 -218 c-40 -120 -70 -218 -67 -218 4 0 106 32 227 71 l220
71 106 -55 c191 -100 353 -140 565 -140 318 0 600 114 830 334 98 95 166 182
223 289 235 438 190 937 -121 1325 -245 305 -667 478 -1059 435z m-235 -558
c9 -9 45 -89 80 -176 75 -184 75 -181 -4 -271 -27 -31 -49 -66 -49 -78 0 -50
130 -212 240 -300 82 -66 238 -147 281 -147 22 0 39 14 86 72 86 106 91 111
119 104 13 -4 94 -40 179 -80 l155 -75 0 -48 c0 -80 -24 -143 -72 -190 -78
-75 -209 -122 -305 -109 -69 9 -282 82 -378 130 -192 93 -378 267 -532 496
-102 152 -138 248 -137 365 2 113 29 181 108 262 l62 63 75 0 c60 0 79 -4 92
-18z"/>
</g>
</svg>
